<svg width="514" height="184" viewBox="0 0 514 184" fill="none" xmlns="http://www.w3.org/2000/svg">
<path d="M-0.000128318 179.891V15.2197H40.4193V179.891H-0.000128318ZM29.1917 179.891V147.456H130.739V179.891H29.1917ZM29.1917 111.528V82.3359H118.015V111.528H29.1917ZM29.1917 47.4055V15.2197H129.991V47.4055H29.1917ZM192.326 183.385C183.51 183.385 175.526 182.553 168.373 180.889C161.221 179.392 154.983 177.147 149.661 174.153C144.338 171.159 139.93 167.583 136.437 163.424C133.11 159.1 130.782 154.359 129.451 149.203L159.391 135.979C160.556 138.807 162.552 141.718 165.379 144.712C168.373 147.539 172.282 149.868 177.106 151.698C182.096 153.527 188.084 154.442 195.07 154.442C201.724 154.442 206.88 153.527 210.539 151.698C214.365 149.702 216.278 146.874 216.278 143.215C216.278 140.553 215.197 138.474 213.034 136.977C211.038 135.314 207.961 133.9 203.803 132.735C199.644 131.405 194.488 130.157 188.334 128.993C182.013 127.662 175.609 126.165 169.122 124.502C162.635 122.672 156.563 120.26 150.908 117.266C145.253 114.106 140.678 110.031 137.185 105.041C133.859 99.8843 132.195 93.3972 132.195 85.5794C132.195 77.429 134.358 70.3598 138.682 64.3717C143.007 58.2173 149.411 53.3936 157.894 49.9005C166.544 46.4075 177.023 44.661 189.332 44.661C200.31 44.661 209.957 46.0748 218.274 48.9025C226.591 51.7302 233.494 55.8054 238.983 61.1282C244.638 66.2846 248.547 72.5221 250.709 79.8409L218.523 91.318C217.692 87.6586 215.945 84.4983 213.284 81.8369C210.789 79.1755 207.545 77.1795 203.553 75.8488C199.727 74.3518 195.153 73.6033 189.831 73.6033C183.343 73.6033 178.27 74.6013 174.611 76.5973C171.118 78.5934 169.371 81.2547 169.371 84.5814C169.371 87.2428 170.536 89.4883 172.864 91.318C175.359 92.9813 178.852 94.3952 183.343 95.5595C187.835 96.7239 193.157 97.9714 199.312 99.3021C205.799 100.633 212.203 102.213 218.523 104.043C225.01 105.706 230.832 108.035 235.989 111.029C241.311 113.856 245.47 117.682 248.464 122.506C251.624 127.163 253.204 133.234 253.204 140.72C253.204 149.535 250.876 157.187 246.218 163.674C241.561 169.995 234.658 174.901 225.509 178.394C216.527 181.721 205.466 183.385 192.326 183.385ZM258.389 179.891V-1.57211e-05H297.811V99.3021C302.634 95.809 307.125 92.0665 311.284 88.0745C315.609 84.0824 319.517 79.924 323.01 75.5993C326.67 71.2746 329.913 66.8667 332.741 62.3757C335.735 57.7183 338.313 52.9777 340.476 48.154H386.384C384.222 54.6411 381.228 61.1282 377.402 67.6152C373.576 73.936 368.919 79.8409 363.43 85.3299C357.941 90.6527 351.371 95.2269 343.719 99.0526C336.234 102.878 327.751 105.456 318.27 106.787V111.278C330.246 108.95 340.06 108.95 347.711 111.278C355.529 113.441 361.767 117.017 366.424 122.007C371.081 126.997 374.658 132.819 377.153 139.472C379.648 146.125 381.727 152.696 383.39 159.183L388.63 179.891H344.967L342.472 167.416C340.808 159.266 338.812 152.28 336.484 146.458C334.321 140.636 331.161 136.145 327.002 132.985C322.844 129.658 316.856 127.995 309.038 127.995H297.811V179.891H258.389ZM422.441 183.385C415.122 183.385 408.635 181.971 402.98 179.143C397.325 176.149 392.917 171.907 389.756 166.418C386.596 160.763 385.016 153.943 385.016 145.959C385.016 138.474 386.43 132.32 389.257 127.496C392.251 122.506 396.493 118.597 401.982 115.769C407.637 112.775 414.374 110.363 422.192 108.534C430.009 106.538 438.908 104.791 448.888 103.294C453.712 102.462 457.704 101.714 460.865 101.049C464.191 100.217 466.686 98.9694 468.35 97.3061C470.013 95.6427 470.845 93.2308 470.845 90.0705C470.845 85.9121 469.348 82.3359 466.354 79.3419C463.36 76.3478 458.536 74.8508 451.883 74.8508C447.225 74.8508 442.984 75.6825 439.158 77.3458C435.498 79.0092 432.338 81.421 429.677 84.5814C427.015 87.7418 425.019 91.5675 423.689 96.0585L388.259 85.5794C390.422 78.5934 393.416 72.5221 397.241 67.3657C401.233 62.2093 405.974 57.9678 411.463 54.6411C416.952 51.1481 423.19 48.653 430.176 47.156C437.328 45.4926 444.896 44.661 452.881 44.661C466.187 44.661 476.999 46.8233 485.316 51.148C493.799 55.3064 500.037 61.8767 504.029 70.8588C508.187 79.6745 510.266 91.0685 510.266 105.041V125.25C510.266 131.238 510.349 137.31 510.516 143.464C510.848 149.452 511.181 155.523 511.514 161.678C512.013 167.666 512.595 173.737 513.26 179.891H477.831C477.165 176.066 476.5 171.492 475.835 166.169C475.169 160.68 474.67 155.108 474.338 149.452H469.597C467.269 155.773 463.859 161.595 459.368 166.917C455.043 172.074 449.72 176.149 443.399 179.143C437.245 181.971 430.259 183.385 422.441 183.385ZM440.655 154.941C443.649 154.941 446.643 154.442 449.637 153.444C452.797 152.28 455.791 150.783 458.619 148.953C461.447 146.957 464.025 144.545 466.354 141.718C468.682 138.89 470.429 135.813 471.593 132.486L471.094 112.775L476.583 114.023C473.423 116.019 469.93 117.599 466.104 118.763C462.278 119.928 458.37 120.842 454.378 121.508C450.552 122.173 446.726 122.922 442.9 123.753C439.241 124.419 435.914 125.334 432.92 126.498C430.093 127.662 427.847 129.242 426.184 131.238C424.52 133.234 423.689 135.979 423.689 139.472C423.689 144.129 425.269 147.872 428.429 150.7C431.59 153.527 435.665 154.941 440.655 154.941Z" fill="#006EFF"/>
</svg>
